<?xml version="1.0" encoding="UTF-8"?>
<svg id="Layer_2" data-name="Layer 2" xmlns="http://www.w3.org/2000/svg" viewBox="0 0 36.5 36.5">
  <defs>
    <style>
      .cls-1, .cls-2 {
        fill: #a5adb3;
      }

      .cls-2 {
        stroke: #a5adb3;
        stroke-miterlimit: 10;
        stroke-width: 1.5px;
      }
    </style>
  </defs>
  <g id="sleep_icon" data-name="sleep icon">
    <circle id="sleep_circle" data-name="sleep circle" class="cls-1" cx="18.25" cy="18.25" r="6.3"/>
    <rect id="sleep_detail" data-name="sleep detail" class="cls-2" x="17.2" y=".75" width="2.1" height="8.4" rx=".75" ry=".75"/>
    <rect id="sleep_detail-2" data-name="sleep detail" class="cls-2" x="17.2" y="27.35" width="2.1" height="8.4" rx=".75" ry=".75"/>
    <rect id="sleep_detail-3" data-name="sleep detail" class="cls-2" x="7.8" y="4.65" width="2.1" height="8.4" rx=".75" ry=".75" transform="translate(-3.66 8.85) rotate(-45)"/>
    <rect id="sleep_detail-4" data-name="sleep detail" class="cls-2" x="26.6" y="23.45" width="2.1" height="8.4" rx=".75" ry=".75" transform="translate(-11.45 27.65) rotate(-45)"/>
    <rect id="sleep_detail-5" data-name="sleep detail" class="cls-2" x="26.6" y="4.65" width="2.1" height="8.4" rx=".75" ry=".75" transform="translate(40.95 34.65) rotate(-135)"/>
    <rect id="sleep_detail-6" data-name="sleep detail" class="cls-2" x="7.8" y="23.45" width="2.1" height="8.4" rx=".75" ry=".75" transform="translate(-4.45 53.46) rotate(-135)"/>
    <rect id="sleep_detail-7" data-name="sleep detail" class="cls-2" x="3.9" y="14.05" width="2.1" height="8.4" rx=".75" ry=".75" transform="translate(-13.3 23.2) rotate(-90)"/>
    <rect id="sleep_detail-8" data-name="sleep detail" class="cls-2" x="30.5" y="14.05" width="2.1" height="8.4" rx=".75" ry=".75" transform="translate(13.3 49.8) rotate(-90)"/>
  </g>
</svg>