<?xml version="1.0" encoding="UTF-8"?>
<svg id="Layer_2" data-name="Layer 2" xmlns="http://www.w3.org/2000/svg" viewBox="0 0 25 25">
  <defs>
    <style>
      .cls-1 {
        fill: none;
        stroke: #a5adb3;
        stroke-miterlimit: 10;
        stroke-width: 1.5px;
      }

      .cls-2 {
        fill: #a5adb3;
      }
    </style>
  </defs>
  <g id="sleep_icon" data-name="sleep icon">
    <circle id="sleep_circle" data-name="sleep circle" class="cls-1" cx="12.5" cy="12.5" r="4.5"/>
    <rect id="sleep_detail" data-name="sleep detail" class="cls-2" x="11.75" y="0" width="1.5" height="6" rx=".75" ry=".75"/>
    <rect id="sleep_detail-2" data-name="sleep detail" class="cls-2" x="11.75" y="19" width="1.5" height="6" rx=".75" ry=".75"/>
    <rect id="sleep_detail-3" data-name="sleep detail" class="cls-2" x="5.03" y="2.78" width="1.5" height="6" rx=".75" ry=".75" transform="translate(-2.4 5.78) rotate(-45)"/>
    <rect id="sleep_detail-4" data-name="sleep detail" class="cls-2" x="18.47" y="16.22" width="1.5" height="6" rx=".75" ry=".75" transform="translate(-7.96 19.22) rotate(-45)"/>
    <rect id="sleep_detail-5" data-name="sleep detail" class="cls-2" x="18.47" y="2.78" width="1.5" height="6" rx=".75" ry=".75" transform="translate(28.72 23.46) rotate(-135)"/>
    <rect id="sleep_detail-6" data-name="sleep detail" class="cls-2" x="5.03" y="16.22" width="1.5" height="6" rx=".75" ry=".75" transform="translate(-3.72 36.9) rotate(-135)"/>
    <rect id="sleep_detail-7" data-name="sleep detail" class="cls-2" x="2.25" y="9.5" width="1.5" height="6" rx=".75" ry=".75" transform="translate(-9.5 15.5) rotate(-90)"/>
    <rect id="sleep_detail-8" data-name="sleep detail" class="cls-2" x="21.25" y="9.5" width="1.5" height="6" rx=".75" ry=".75" transform="translate(9.5 34.5) rotate(-90)"/>
  </g>
</svg>